<?xml version="1.0" encoding="utf-8"?>
<!-- Generator: Adobe Illustrator 24.0.1, SVG Export Plug-In . SVG Version: 6.00 Build 0)  -->
<svg version="1.1" id="Layer_1" xmlns="http://www.w3.org/2000/svg" xmlns:xlink="http://www.w3.org/1999/xlink" x="0px" y="0px"
	 viewBox="0 0 72 14.9" style="enable-background:new 0 0 72 14.9;" xml:space="preserve">
<g>
	<path d="M6.6,5.5c0.2,0,0.3,0,0.4,0.1c0.1,0,0.1,0.1,0.1,0.2c0,0,0,0.1,0,0.1c0,0,0,0.1,0,0.1L6.3,9.4L5.6,6c0-0.1,0-0.1,0-0.1
		c0,0,0-0.1,0-0.1c0-0.1,0-0.2,0.1-0.2c0.1,0,0.2-0.1,0.4-0.1h0.2V4.6h-3v0.9c0.2,0,0.4,0.1,0.5,0.2C3.9,5.8,3.9,6,4,6.3L3.3,9.4
		L2.4,6c0,0,0-0.1,0-0.1c0,0,0-0.1,0-0.1c0-0.1,0-0.2,0.1-0.2s0.2-0.1,0.3-0.1V4.6H0v0.9c0.2,0,0.3,0.1,0.5,0.2
		c0.1,0.1,0.2,0.3,0.3,0.6L2,11.2h1.9l0.6-2.7l0.6,2.7H7l1.2-5c0.1-0.2,0.1-0.4,0.2-0.5c0.1-0.1,0.2-0.1,0.4-0.1V4.6H6.6V5.5z"/>
	<path d="M12.6,4.4c-1.1,0-1.9,0.3-2.6,0.9C9.5,6,9.2,6.8,9.2,7.9c0,1.1,0.3,1.9,0.9,2.6c0.6,0.6,1.5,0.9,2.5,0.9
		c1.1,0,1.9-0.3,2.6-0.9c0.6-0.6,0.9-1.5,0.9-2.6c0-1.1-0.3-1.9-0.9-2.6C14.6,4.7,13.7,4.4,12.6,4.4z M13.5,9.8
		c-0.2,0.4-0.5,0.6-0.9,0.6c-0.4,0-0.7-0.2-0.9-0.6c-0.2-0.4-0.3-1-0.3-1.9c0-0.9,0.1-1.5,0.3-1.9c0.2-0.4,0.5-0.6,0.9-0.6
		c0.4,0,0.7,0.2,0.9,0.6c0.2,0.4,0.3,1,0.3,1.9C13.8,8.8,13.7,9.4,13.5,9.8z"/>
	<g>
		<path d="M53.4,8.6h0.2c0.2,0,0.4,0,0.4,0.1C54,8.7,54,8.9,54,9.1v0.5c0,0.3,0,0.5-0.1,0.6c-0.1,0.1-0.3,0.1-0.5,0.1
			c-0.4,0-0.7-0.2-0.9-0.6c-0.2-0.4-0.3-1-0.3-1.9c0-0.9,0.1-1.5,0.3-1.9c0.2-0.4,0.5-0.6,0.9-0.6c0.4,0,0.6,0.1,0.8,0.4
			s0.4,0.7,0.5,1.4h1V4.5h-1l-0.1,0.4c-0.2-0.2-0.5-0.3-0.7-0.4c-0.3-0.1-0.6-0.1-0.9-0.1c-0.9,0-1.7,0.3-2.3,1
			c-0.3,0.3-0.5,0.7-0.6,1.1c-0.1-0.6-0.3-1.3-0.5-1.9c0-0.1-0.1-0.2-0.1-0.3c-0.4-0.8-0.9-1.4-1.4-2C48,2.1,47.9,2,47.8,1.9
			c-1.1-1-2.5-1.7-4.1-1.9l-0.1,0c-0.1,0-0.3,0-0.4,0c-0.1,0-0.1,0-0.2,0c-0.1,0-0.3,0-0.4,0c0,0-0.1,0-0.1,0c-0.1,0-0.3,0-0.4,0
			c0,0-0.1,0-0.1,0c-1.6,0.2-3,0.8-4.2,1.9c-0.1,0.1-0.2,0.2-0.3,0.3c-0.6,0.6-1.1,1.3-1.4,2.1c0,0.1-0.1,0.2-0.1,0.3
			c-0.2,0.6-0.4,1.2-0.5,1.8c-0.1-0.4-0.4-0.7-0.6-1c-0.6-0.5-1.5-0.8-2.7-0.8H29v0.9h0.3c0.2,0,0.3,0,0.4,0.1
			c0.1,0.1,0.1,0.2,0.1,0.5v3.6v0c0,0.2,0,0.4-0.1,0.4c-0.1,0.1-0.2,0.1-0.4,0.1H29v0.9h3.3c1.2,0,2.1-0.3,2.7-0.8
			c0.4-0.3,0.6-0.8,0.7-1.3c0,0.1,0.1,0.3,0.1,0.4l0,0c0.4,1.5,1.4,2.9,2.6,3.8c0.6,0.5,1.3,0.9,2.1,1.1c0.1,0,0.3,0.1,0.4,0.1
			c0.3,0.1,0.7,0.2,1.1,0.2c0.2,0,0.4,0,0.6,0c0.1,0,0.3,0,0.4,0l0.1,0c0.2,0,0.4,0,0.6,0c0.1,0,0.2,0,0.2,0c0.2,0,0.3,0,0.5-0.1
			c2.7-0.5,5-2.6,5.7-5.3C50,9.3,50,9.2,50,9.1c0,0,0,0,0,0c0.1,0.5,0.3,1,0.7,1.4c0.5,0.6,1.3,0.9,2.2,0.9c0.3,0,0.6,0,0.9-0.1
			c0.3-0.1,0.6-0.2,0.9-0.4l0.2,0.4H56V9.1c0-0.3,0-0.4,0.1-0.5c0.1-0.1,0.2-0.1,0.4-0.1h0.2V7.6h-3.3V8.6z M33.2,9.7
			c-0.2,0.4-0.5,0.5-0.9,0.5h-0.5V5.6h0.5c0.4,0,0.7,0.2,0.9,0.5c0.2,0.4,0.3,1,0.3,1.8C33.5,8.7,33.4,9.3,33.2,9.7z M46.8,2.1
			c0.1,0.1,0.1,0.1,0.2,0.2c-0.1,0-0.1,0.1-0.2,0.1C46.9,2.3,46.9,2.2,46.8,2.1z M46.8,2.8c0.2-0.1,0.4-0.2,0.6-0.3
			C47.6,2.7,47.8,3,48,3.2l-0.1,0.1v0.5c0,0-0.5,0.4-0.6,0.7c-0.2-0.4-0.4-0.7-0.7-1.1C46.8,3.2,46.8,3,46.8,2.8z M45.3,6.8
			C46,6.7,46.7,6.4,47.4,6c0.1,0.3,0.1,0.6,0.1,0.9c0,0.1-0.1,0.3,0,0.5c0,0.4-0.1,0.9-0.2,1.3c-0.8,0.4-1.6,0.7-2.5,0.9
			c0.2-0.7,0.4-1.5,0.4-2.3C45.3,7.2,45.3,7,45.3,6.8z M47.6,10.7c-0.3,0.2-0.6,0.3-0.8,0.5c0.2-0.3,0.3-0.5,0.5-0.8
			c0,0,0,0.1,0.1,0.1C47.3,10.5,47.4,10.6,47.6,10.7z M45.5,3.2c0.3,0.3,0.2,0.9,0.2,0.9c0,0.2,0.5-0.3,0.6-0.4
			c0.4,0.6,0.8,1.3,1,1.9c-0.7,0.4-1.4,0.6-2.1,0.8c0-0.2,0-0.3-0.1-0.5c0,0.1,0.1,0.1,0.1,0.1c0,0-0.1,0-0.1,0s0.2,0.2,0.2-0.9
			c0,0,0.1-0.1,0-0.4l0-0.1c0,0,0.1-0.1,0-0.2c0,0,0-0.4-0.6-1c0,0,0-0.1,0.1-0.1C45.2,3.3,45.3,3.2,45.5,3.2
			C45.5,3.2,45.5,3.2,45.5,3.2z M45.5,1.3c0,0.1-0.2,0.3-0.4,0.5c-0.4-0.3-0.8-0.7-1.3-1C44.4,0.9,45,1.1,45.5,1.3z M43.1,0.8
			C44,1.4,44.8,2,45.4,2.6c0.1,0.1,0.1,0.2,0,0.2C45,2.9,44.7,3,44.3,3c-0.2-0.5-0.5-1-0.7-1.5C43.4,1.3,43.3,1,43.1,0.8L43.1,0.8z
			 M44.8,6.5c-0.1,0-0.1,0-0.2,0c0,0,0,0,0,0c0,0-0.1-0.7,0-0.6c0,0,0.1,0.2,0.1,0.3C44.8,6.3,44.8,6.4,44.8,6.5z M43.9,3
			c-0.1,0-0.3,0-0.4,0c-0.5,0-1,0-1.6-0.1c0.3-0.6,0.6-1.2,1-1.8C43.2,1.8,43.6,2.4,43.9,3z M42.6,0.7C42.6,0.8,42.6,0.8,42.6,0.7
			c-0.2,0.5-0.4,0.8-0.7,1.3c-0.2,0.3-0.3,0.6-0.5,0.9c-0.4-0.1-0.8-0.1-1.2-0.2C40.9,2,41.7,1.3,42.6,0.7z M41.7,0.8
			c-0.7,0.5-1.3,1.1-1.9,1.7c-0.2-0.2-0.6-0.5-0.9-0.5l-0.3,0.2c0,0,0,0,0,0C39.6,1.5,40.6,1,41.7,0.8z M40,9.3c0,0-0.1,0-0.1,0
			c0-0.1,0-0.2,0.1-0.2C40,9.1,40,9.2,40,9.3z M39.3,8.7c0,0,0,0.2,0,0.4C39,9,38.7,8.9,38.4,8.7c-0.1-0.4-0.1-0.8-0.1-1.3
			c0-0.4,0-0.8,0.1-1.2C38.5,6.4,39,7,39.3,8.7z M38.3,2.6l0.1,0.1l0.1,0.5c0,0-0.2,0-0.3,0c0,0-0.3,0.2,0,0.4c0,0,0,0.3-0.2,0.2
			l-0.2,0c0,0-0.3-0.2-0.1,0.2c0,0,0,0.3,0.2,0.6c0,0,0,0.4-0.2,0.4c-0.2-0.1-0.5-0.3-0.7-0.4C37.2,3.9,37.6,3.2,38.3,2.6z
			 M38.1,5.4c0,0-0.1,0-0.1-0.1C38,5.3,38,5.3,38.1,5.4C38,5.3,38.1,5.3,38.1,5.4z M36.6,5c0.2,0.1,0.4,0.2,0.6,0.4
			c-0.1,0.1-0.2,0.3,0,0.3c0,0,0.2,0,0.2-0.1c0.2,0.1,0.4,0.2,0.6,0.3c-0.1,0.5-0.2,1.1-0.2,1.6c0,0.3,0,0.7,0.1,1
			c-0.6-0.3-1.2-0.7-1.8-1.1C36.2,6.5,36.4,5.8,36.6,5z M36.5,9.3c-0.1-0.5-0.2-1-0.2-1.4c0.6,0.4,1.2,0.8,1.9,1.1
			c0.2,0.8,0.5,1.6,1,2.3c-0.8-0.4-1.7-0.9-2.5-1.6C36.5,9.5,36.5,9.4,36.5,9.3z M40.2,13.6c-1.4-0.6-2.6-1.7-3.3-3.1
			c0.8,0.6,1.7,1.1,2.6,1.5c0.1,0.2,0.3,0.3,0.4,0.5c0.2,0.2,0.3,0.4,0.5,0.6C40.2,13.1,40.2,13.4,40.2,13.6z M40.8,12.8
			c-0.2-0.2-0.4-0.4-0.6-0.6c0.3,0.1,0.6,0.2,0.8,0.2C41,12.5,40.9,12.7,40.8,12.8z M39.7,11.6c-0.6-0.8-1-1.6-1.2-2.4
			c0.3,0.1,0.6,0.3,0.9,0.4c0,0,0.1,0.1,0.1,0.1l0.3,0.4c0,0,0.2,0.1,0-0.3c0,0,0,0,0,0c0.1,0,0.1,0,0.2,0.1
			c0.1,0.4,0.3,0.8,0.8,1.3c0.1,0.1,0.1,0.3,0.2,0.4l0.2,0.5C40.7,11.9,40.2,11.8,39.7,11.6z M41.7,9.7C41.7,9.7,41.7,9.7,41.7,9.7
			c-0.1,0-0.2,0-0.3,0c-0.1-0.2-0.3-0.5-0.2-1c0,0,0.8-0.5,1.1-0.3c0,0,0.5,0.1,0.9,0.8c0,0,0.4,0.3,0.3-0.2c0,0-0.1-0.9,0.1-1.1
			c0,0,0.2,0.2,0.2-0.1c0,0,0.2-0.6,0.4-0.8c0.2,0,0.4-0.1,0.7-0.1c0,0.1,0,0.3,0,0.4c0,0.8-0.1,1.6-0.4,2.4c-0.5,0.1-1,0.1-1.5,0.1
			c-0.4,0-0.8,0-1.2-0.1C41.8,9.7,41.8,9.7,41.7,9.7z M43.6,11.4c-0.1-0.1-0.1-0.1-0.1-0.1c-0.4-0.6-0.9-0.2-0.9-0.2
			c-0.1,0-0.2,0.1-0.4,0.2c-0.1-0.1-0.4-0.5-0.4-1c0-0.1,0-0.1,0-0.2c0.4,0,0.8,0.1,1.1,0.1l0.1,0c0.4,0,0.8,0,1.3-0.1
			C44.1,10.6,43.9,11,43.6,11.4z M44,11.6c0.3-0.5,0.6-1,0.8-1.5c0.8-0.2,1.7-0.4,2.5-0.8c-0.1,0.1-0.1,0.3-0.1,0.4
			c-0.3,0.7-0.6,1.3-1.1,1.9c-0.5,0.2-1,0.4-1.6,0.5C44.3,11.9,44.1,11.7,44,11.6z M44.8,12.3c0.2,0,0.4-0.1,0.6-0.2
			c-0.1,0.1-0.2,0.2-0.4,0.3C45,12.4,44.9,12.4,44.8,12.3z M46,13.3c-0.2-0.2-0.4-0.3-0.7-0.5c0.3-0.3,0.6-0.6,0.9-0.9
			c0.6-0.2,1.1-0.5,1.6-0.8c0.1,0.1,0.2,0.3,0.3,0.4C47.6,12.2,46.9,12.8,46,13.3z M49.2,7.5c-0.1,0-0.1,0.1-0.2,0.1
			c0,0-0.1,0-0.1,0c0,0-0.5,0.1-1,0.6c0-0.2,0-0.4,0.1-0.6c0.1,0,0.3-0.1,0.5-0.4c0,0,0.4-0.7,0.6-0.1l0.2,0.2
			C49.2,7.3,49.2,7.4,49.2,7.5z"/>
		<path d="M71.3,5.6c0.1-0.1,0.2-0.1,0.4-0.1H72V4.6h-3.5l-1.1,3.9l-1-3.9h-3.3h-0.1h-2.6v0.9h0.2c0.1,0,0.2,0,0.3,0
			C61,5.6,61,5.6,61,5.7c0,0.1,0,0.1,0,0.2c0,0.1,0,0.1-0.1,0.2l-0.7,1.3L59.5,6c0-0.1-0.1-0.1-0.1-0.2c0,0,0-0.1,0-0.1
			c0-0.1,0-0.1,0.1-0.2s0.2-0.1,0.3-0.1H60V4.6h-3.5v0.9h0.2c0.2,0,0.3,0.1,0.4,0.2c0.1,0.1,0.3,0.3,0.4,0.5l1.3,2.4v1.1
			c0,0.3,0,0.4-0.1,0.5c-0.1,0.1-0.2,0.1-0.4,0.1H58v0.9h3.6v-0.9h-0.3c-0.2,0-0.3,0-0.4-0.1c-0.1-0.1-0.1-0.2-0.1-0.5V8.5l1.3-2.4
			c0.2-0.3,0.3-0.4,0.4-0.5c0.1-0.1,0.2-0.1,0.4-0.1h0.1h0.1h0.2c0.2,0,0.3,0,0.4,0.1c0.1,0.1,0.1,0.2,0.1,0.5v3.6
			c0,0.3,0,0.4-0.1,0.5c-0.1,0.1-0.2,0.1-0.4,0.1h-0.3v0.9h2.7v-0.9h-0.2c-0.2,0-0.3,0-0.4-0.1C65.1,10.1,65,9.9,65,9.6v-4l1.5,5.5
			h1.4l1.5-5.5v4c0,0.3,0,0.4-0.1,0.5c-0.1,0.1-0.2,0.1-0.4,0.1h-0.2v0.9H72v-0.9h-0.3c-0.2,0-0.3,0-0.4-0.1
			c-0.1-0.1-0.1-0.2-0.1-0.5V6C71.2,5.8,71.2,5.6,71.3,5.6z"/>
		<path d="M27.9,9.4c-0.1,0.2-0.1,0.4-0.3,0.5c-0.1,0.1-0.2,0.2-0.4,0.2c-0.2,0-0.4,0.1-0.8,0.1h-0.4V6.1v0c0-0.2,0-0.4,0.1-0.4
			c0.1-0.1,0.2-0.1,0.4-0.1h0.3V4.6h-3.6v0.9h0.3c0.2,0,0.3,0,0.4,0.1c0.1,0.1,0.1,0.2,0.1,0.5v3.6c0,0.3,0,0.4-0.1,0.5
			c-0.1,0.1-0.2,0.1-0.4,0.1h-0.3c0-0.2,0.1-0.4,0.1-0.7c0,0,0-0.1,0-0.1c0-0.1,0-0.1,0-0.1h-0.6c0,0,0,0.1,0,0.1c0,0.1,0,0.1,0,0.1
			c0,0.2,0,0.4-0.1,0.5c0,0.1-0.1,0.2-0.2,0.2c-0.1,0-0.1,0-0.2-0.1c0-0.1-0.1-0.3-0.1-0.5c0-0.8-0.1-1.3-0.2-1.5
			c-0.1-0.2-0.4-0.4-0.8-0.4c0.4-0.1,0.7-0.3,0.9-0.5c0.2-0.3,0.3-0.6,0.3-0.9c0-0.5-0.2-1-0.5-1.2c-0.4-0.3-0.9-0.4-1.6-0.4h-4.1
			v0.9h0.3c0.2,0,0.3,0,0.4,0.1c0.1,0.1,0.1,0.2,0.1,0.5v3.6c0,0.3,0,0.4-0.1,0.5c-0.1,0.1-0.2,0.1-0.4,0.1h-0.3v0.9h3.6v-0.9h-0.3
			c-0.2,0-0.3,0-0.4-0.1c-0.1-0.1-0.1-0.2-0.1-0.5V8.2h0.5c0.3,0,0.6,0.1,0.7,0.2c0.1,0.1,0.2,0.4,0.2,0.8v0.6
			c0,0.5,0.1,0.9,0.4,1.2c0.2,0.2,0.6,0.4,1.2,0.4c0.5,0,0.9-0.1,1.1-0.4c0.1-0.1,0.2-0.3,0.2-0.5v0.8H29V8.5H28
			C28,8.9,28,9.2,27.9,9.4z M20.3,7.1c-0.1,0.1-0.4,0.2-0.8,0.2H19V5.6h0.6c0.3,0,0.6,0.1,0.7,0.2c0.1,0.1,0.2,0.4,0.2,0.7
			C20.6,6.8,20.5,7,20.3,7.1z"/>
	</g>
</g>
</svg>
